<?xml version="1.0" encoding="utf-8"?>
<!-- Generator: Adobe Illustrator 22.0.1, SVG Export Plug-In . SVG Version: 6.00 Build 0)  -->
<svg version="1.1" id="Layer_1" xmlns="http://www.w3.org/2000/svg" xmlns:xlink="http://www.w3.org/1999/xlink" x="0px" y="0px"
	 viewBox="0 0 131 98.5" style="enable-background:new 0 0 131 98.5;" xml:space="preserve">
<path d="M33.2,64.9c0,3.4,0,8.1,4.5,8.1s4.5-4.4,4.5-9.4c0-7.1-0.2-9.7-8.1-9.7h-2.9V41.7h2.9c5.5,0,7.6-1.2,7.6-10.1
	c0-2.9-0.2-6.5-4.2-6.5c-4.1,0-4.4,3.2-4.4,9H14.6c0.7-16.7,8.7-21.8,24.7-21.8c16.7,0,22.2,7.1,22.2,19.6c0,6.5-3,13.6-10.1,14.9
	v0.2c8,1.6,11.2,8.4,11.2,16.2c0,16.6-9.3,22.8-25,22.8c-13.4,0-24.6-4.2-24.2-23.7h19.8V64.9z"/>
<path d="M97,29.2h21l-15.2,22.9l16.6,32.3h-21l-8.4-18.1l-3,4.5v13.6H67.3V11.6h20.1v34.6h0.2L97,29.2z"/>
</svg>
