<?xml version="1.0" encoding="utf-8"?>
<!-- Generator: Adobe Illustrator 22.0.1, SVG Export Plug-In . SVG Version: 6.00 Build 0)  -->
<svg version="1.1" id="Layer_1" xmlns="http://www.w3.org/2000/svg" xmlns:xlink="http://www.w3.org/1999/xlink" x="0px" y="0px"
	 viewBox="0 0 131 98.5" style="enable-background:new 0 0 131 98.5;" xml:space="preserve">
<path d="M15.6,13.6H59v15.3H31.2l-0.6,11.5h0.2c1.8-3.7,7.1-6.3,12.4-6.3c15.9,0,19.1,9.6,19.1,25.4c0,17.5-5.7,26.3-24.1,26.3
	c-9.4,0-24.5-1.5-24.5-20.7v-2.9h19.2v2.9c0,2.9,0.5,7.9,4.4,7.9c4.6,0,4.6-3.9,4.6-12.4c0-8.6-0.3-12.3-4.6-12.3
	c-3.3,0-4.4,3.1-4.4,5.7H14.4L15.6,13.6z"/>
<path d="M97,29.2h21l-15.2,22.9l16.6,32.3h-21l-8.4-18.1l-3,4.5v13.6H67.3V11.6h20.1v34.6h0.2L97,29.2z"/>
</svg>
