<?xml version="1.0" encoding="utf-8"?>
<!-- Generator: Adobe Illustrator 22.0.1, SVG Export Plug-In . SVG Version: 6.00 Build 0)  -->
<svg version="1.1" id="Layer_1" xmlns="http://www.w3.org/2000/svg" xmlns:xlink="http://www.w3.org/1999/xlink" x="0px" y="0px"
	 viewBox="0 0 131 98.5" style="enable-background:new 0 0 131 98.5;" xml:space="preserve">
<path d="M42.6,31.2V29c0-2.6-1.3-4-4.4-4c-4,0-4.4,2.8-4.4,9.7v6.7H34c2.7-3.5,7.2-5.1,11.8-5.1c15.8,0,17.3,13,17.3,21.9
	c0,18.5-5.8,27.5-25.2,27.5c-24.6,0-25.2-16.6-25.2-34c0-21.2,0-39.7,25.2-39.7c15.7,0,23.3,4.3,23.8,19H42.6z M33.2,62.1
	c0,6.9,0,10.9,4.8,10.9c4.8,0,4.8-4,4.8-10.9c0-7,0-11-4.8-11C33.2,51.1,33.2,55,33.2,62.1z"/>
<path d="M97,29.2h21l-15.2,22.9l16.6,32.3h-21l-8.4-18.1l-3,4.5v13.6H67.3V11.6h20.1v34.6h0.2L97,29.2z"/>
</svg>
