<?xml version="1.0" encoding="utf-8"?>
<!-- Generator: Adobe Illustrator 22.0.1, SVG Export Plug-In . SVG Version: 6.00 Build 0)  -->
<svg version="1.1" id="Layer_1" xmlns="http://www.w3.org/2000/svg" xmlns:xlink="http://www.w3.org/1999/xlink" x="0px" y="0px"
	 viewBox="0 0 174.8 36.5" style="enable-background:new 0 0 174.8 36.5;" xml:space="preserve">
<style type="text/css">
	.st0{fill:#FFFFFF;}
</style>
<rect class="st0" width="174.1" height="36.5"/>
<g>
	<polyline points="149.2,23.5 149.9,26.1 152.5,25.4 152.5,25.4 160.5,11.4 157.2,9.5 149.2,23.5 	"/>
	<g>
		<path d="M27.2,24.2c-0.6,0.6-1.4,1.1-2.5,1.5s-2.3,0.6-3.6,0.6c-2,0-3.6-0.6-4.8-1.8c-1.2-1.2-1.8-2.9-1.9-5.1v-1.3
			c0-1.5,0.3-2.8,0.8-3.9s1.3-2,2.3-2.6s2.1-0.9,3.4-0.9c1.9,0,3.4,0.4,4.4,1.3c1,0.9,1.7,2.2,1.8,3.9h-3.5
			c-0.1-0.8-0.4-1.5-0.8-1.8c-0.4-0.4-1-0.5-1.8-0.5c-0.9,0-1.6,0.4-2.1,1.2s-0.8,1.9-0.8,3.3V19c0,1.5,0.3,2.7,0.8,3.4
			c0.5,0.8,1.3,1.1,2.5,1.1c1,0,1.7-0.2,2.1-0.6v-2.4h-2.6V18h6.2v6.2H27.2z"/>
		<path d="M36,18l-1.2-0.1c-1.1,0-1.8,0.3-2.1,1v7.2h-3.5V14.8h3.3l0.1,1.5c0.6-1.1,1.4-1.7,2.5-1.7c0.4,0,0.7,0,1,0.1L36,18z"/>
		<path d="M42.5,26.3c-1.7,0-3.1-0.5-4.2-1.6c-1.1-1-1.6-2.4-1.6-4v-0.3c0-1.2,0.2-2.2,0.6-3.1c0.4-0.9,1.1-1.6,1.9-2.1
			c0.8-0.5,1.8-0.7,2.9-0.7c1.6,0,2.8,0.5,3.8,1.5c0.9,1,1.4,2.4,1.4,4.1v1.4h-7c0.1,0.6,0.4,1.1,0.8,1.5c0.4,0.4,1,0.5,1.7,0.5
			c1.1,0,2-0.4,2.6-1.2l1.6,1.9c-0.4,0.6-1.1,1.1-1.9,1.4C44.3,26.1,43.4,26.3,42.5,26.3z M42.1,17.3c-1,0-1.6,0.7-1.8,2h3.6V19
			c0-0.6-0.1-1-0.4-1.3C43.1,17.4,42.7,17.3,42.1,17.3z"/>
		<path d="M54.2,26.3c-1.7,0-3.1-0.5-4.2-1.6c-1.1-1-1.6-2.4-1.6-4v-0.3c0-1.2,0.2-2.2,0.6-3.1c0.4-0.9,1.1-1.6,1.9-2.1
			c0.8-0.5,1.8-0.7,2.9-0.7c1.6,0,2.8,0.5,3.8,1.5c0.9,1,1.4,2.4,1.4,4.1v1.4h-7c0.1,0.6,0.4,1.1,0.8,1.5c0.4,0.4,1,0.5,1.7,0.5
			c1.1,0,2-0.4,2.6-1.2l1.6,1.9c-0.4,0.6-1.1,1.1-1.9,1.4C56,26.1,55.1,26.3,54.2,26.3z M53.8,17.3c-1,0-1.6,0.7-1.8,2h3.6V19
			c0-0.6-0.1-1-0.4-1.3C54.8,17.4,54.3,17.3,53.8,17.3z"/>
		<path d="M63.6,14.8l0.1,1.3c0.8-1,1.9-1.5,3.2-1.5c1.2,0,2.1,0.4,2.6,1.1c0.6,0.7,0.9,1.8,0.9,3.2v7.3h-3.5v-7.1
			c0-0.6-0.1-1-0.3-1.3c-0.2-0.3-0.6-0.4-1.3-0.4c-0.7,0-1.2,0.3-1.5,0.8v8h-3.5V14.8H63.6z"/>
		<path d="M82.7,10.9l3.4,10.6l3.4-10.6h4.8v15.2h-3.7v-3.6l0.4-7.3L87.3,26h-2.4l-3.7-10.8l0.4,7.3v3.6h-3.7V10.9H82.7z"/>
		<path d="M102.9,26.1c-0.1-0.2-0.2-0.6-0.3-1c-0.6,0.8-1.6,1.2-2.7,1.2s-2-0.3-2.7-1S96,23.9,96,22.9c0-1.2,0.5-2.2,1.4-2.8
			s2.2-0.9,4-0.9h1.1v-0.6c0-1-0.4-1.6-1.3-1.6c-0.8,0-1.3,0.4-1.3,1.2h-3.5c0-1.1,0.5-2,1.4-2.7s2.1-1,3.6-1s2.6,0.4,3.4,1.1
			c0.8,0.7,1.3,1.7,1.3,2.9v5c0,1,0.2,1.8,0.5,2.4v0.2C106.6,26.1,102.9,26.1,102.9,26.1z M100.7,23.8c0.4,0,0.8-0.1,1.1-0.3
			c0.3-0.2,0.5-0.4,0.6-0.6V21h-1c-1.2,0-1.8,0.6-1.8,1.7c0,0.3,0.1,0.6,0.3,0.8C100.1,23.7,100.3,23.8,100.7,23.8z"/>
		<path d="M114.7,18l-1.2-0.1c-1.1,0-1.8,0.3-2.1,1v7.2h-3.5V14.8h3.3l0.1,1.5c0.6-1.1,1.4-1.7,2.5-1.7c0.4,0,0.7,0,1,0.1L114.7,18z
			"/>
		<path d="M120.5,21.9l-1,1v3.2H116V10h3.5v8.5l0.4-0.5l2.7-3.3h4.2l-4,4.7l4.2,6.7h-4L120.5,21.9z"/>
		<path d="M133,26.3c-1.7,0-3.1-0.5-4.2-1.6c-1.1-1-1.6-2.4-1.6-4v-0.3c0-1.2,0.2-2.2,0.6-3.1c0.4-0.9,1.1-1.6,1.9-2.1
			c0.8-0.5,1.8-0.7,2.9-0.7c1.6,0,2.8,0.5,3.8,1.5c0.9,1,1.4,2.4,1.4,4.1v1.4h-7c0.1,0.6,0.4,1.1,0.8,1.5c0.4,0.4,1,0.5,1.7,0.5
			c1.1,0,2-0.4,2.6-1.2l1.6,1.9c-0.4,0.6-1.1,1.1-1.9,1.4C134.7,26.1,133.9,26.3,133,26.3z M132.6,17.3c-1,0-1.6,0.7-1.8,2h3.6V19
			c0-0.6-0.1-1-0.4-1.3C133.5,17.4,133.1,17.3,132.6,17.3z"/>
		<path d="M146,18l-1.2-0.1c-1.1,0-1.8,0.3-2.1,1v7.2h-3.5V14.8h3.3l0.1,1.5c0.6-1.1,1.4-1.7,2.5-1.7c0.4,0,0.7,0,1,0.1L146,18z"/>
	</g>
</g>
</svg>
