<?xml version="1.0" encoding="utf-8"?>
<!-- Generator: Adobe Illustrator 22.0.1, SVG Export Plug-In . SVG Version: 6.00 Build 0)  -->
<svg version="1.1" id="Layer_1" xmlns="http://www.w3.org/2000/svg" xmlns:xlink="http://www.w3.org/1999/xlink" x="0px" y="0px"
	 viewBox="0 0 400 401.5" style="enable-background:new 0 0 400 401.5;" xml:space="preserve">
<style type="text/css">
	.st0{fill:#333333;}
</style>
<g>
	<path class="st0" d="M22.3,84.5c5.3-20.2,15.2-37.8,29.6-53c9.7-10.2,23-10.9,35.8-13.1c0.8-0.1,1.7,0.2,2.5-0.1
		c10.6-3.1,16.7,2,21.5,10.9c9.1,17,18.6,33.8,28.2,50.5c3,5.3,6.6,10.4,9.9,15.5c5,7.6,4.7,12.6-0.4,20.1
		c-7,10.4-17.9,16.3-27.2,24c-4.1,3.4-8.2,6.7-11.7,10.8c-5,6.1-5,12.4-1.3,18.9c14.7,25.6,29.7,50.9,50.7,72
		c16.8,16.9,35.7,30.9,56.3,42.8c7.5,4.3,14.3,9.7,22.6,12.6c6.8,2.4,11.8,0.7,16.8-3.8c9.1-8.2,15.4-18.8,23.4-27.9
		c2.9-3.2,5.7-6.6,9.1-9.2c6.5-5.1,12.5-5.2,19.9-1.5c7.9,4,14.5,10,22.3,14.2c16.4,8.7,33,17.3,48.7,27.2c-0.6,1.9-2.2,3.2-3.3,4.9
		c-2.6,3.7-5.7,6.8-9.3,9.5c-14.7,11.2-30.8,19.6-48.9,23.9c-2.1,0.5-4.2,1.1-6.4,0.6c-2.2-0.5-4.3-1.6-6.7-1.4
		c0.9,0.6,3.1-0.9,2.7,1.7c-6,2.2-11.9,2.3-17.9-0.1c0.4-2.7,2.5-1,3.8-1.4c-2.8-0.6-5.2,0.7-7.8,1.3c-10.8-0.3-20.9-3.8-30.9-7.5
		c-14.8-5.4-29.7-10.9-44.3-16.9c-7.2-3.2-14.2-6.7-21.1-10.5c-19.4-11.8-37.3-25.5-54.1-40.7c-2.2-1.7-4.2-3.5-5.8-5.7
		c-0.2-0.4-0.4-0.8-0.5-1.3c-1.8-3.3-4.5-5.8-7.9-7.5c-2.9-2-6.3-3.5-7.5-7.2c-2.2-4.7-6-7.9-10.1-10.8c-0.4-0.1-0.9-0.3-1.3-0.5
		c-1.9-1.3-3.4-3.1-4.7-4.9c-17.5-19.1-32.8-39.7-45.6-62.2c-2-4.4-4.5-8.6-6.4-13.1C36.9,125.4,28.6,105.3,22.3,84.5z"/>
	<path class="st0" d="M52.2,158.5c8,12.5,15.5,25.4,24.9,37C84,204,91,212.3,98,220.7c0.2,2.6,2.3,3.7,4.2,4.8
		c0.3,0,0.6,0.1,0.9,0.1c4.1,3.3,7.9,6.8,10.9,11.2c1,3.6,4.7,4.5,6.9,6.9c3.3,2.1,5.9,4.8,8.1,8c0,0.3,0.1,0.6,0.1,0.9
		c1.6,2.1,2.8,4.7,5.9,5.1c16.9,15.1,34.9,28.8,54.1,40.9c6.5,4.4,13.1,8.4,20.9,10.1c15.1,5.9,30.1,11.9,45.4,17.5
		c9.6,3.5,19.4,6.4,29.7,7.4c1.3-0.6,2.6-0.7,3.9,0.1c6.1,1.5,12.1,1.6,18.2,0c1.3-0.9,2.5-0.7,3.8-0.1c14.8-1.8,28-7.7,40.7-15.1
		c5-2.9,9.6-6.5,14.4-9.7c4.2-1.8,7.1-4.9,9-9c1.1-1.5,1.6-3.6,3.7-4.1c7.6,3.4,9,9.5,7.8,16.9c-1.2,8.1-2.9,16-5,23.9
		c-2.5,9.4-7.6,16.8-15.2,22.8c-23.7,18.6-50.1,28.9-80.5,25.6c-15.1-1.6-29.1-7.8-43.5-12.5c-40.5-13.4-75.9-35.2-107.2-63.8
		c-3.2-2.9-6.1-6-9.2-9c-5.4-5.8-10.7-11.8-17-16.7c-30.9-31.7-57.3-66.5-71.8-109c-4.9-14.5-11.2-28.4-14.7-43.4
		c-3.6-15.3-4.2-30.6-0.2-45.9c1.4,0.2,1.7,1.3,2.1,2.5c6.4,19.5,13.8,38.6,21.6,57.7c0.1,0.3,0.1,0.7,0.1,1
		C47,150.4,49.6,154.5,52.2,158.5z"/>
	<path class="st0" d="M109.1,282.8c0.2-0.2,0.7-0.6,0.7-0.5c5.7,5.5,12.1,10.3,16.3,17.2C119.6,294.7,114.3,288.7,109.1,282.8z"/>
	<path class="st0" d="M210.1,308.7c-0.2,0.2-0.6,0.7-0.7,0.6c-7.4-2.3-14.4-5.5-20.5-10.4c0.1-0.1,0.2-0.2,0.4-0.3
		C196.1,301.9,203.1,305.3,210.1,308.7z"/>
	<path class="st0" d="M114,236.8c-4-3.4-7.7-7.1-10.9-11.2C108.1,228,111.8,231.7,114,236.8z"/>
	<path class="st0" d="M52.2,158.5c-3-2.3-6.4-9.4-6.1-12.9C48.1,149.9,50.2,154.2,52.2,158.5z"/>
	<path class="st0" d="M375.2,299.6c-0.1,3.5-5.4,9-9,9C369.1,305.7,372.2,302.7,375.2,299.6z"/>
	<path class="st0" d="M129.1,251.6c-3-2.3-5.7-5-8.1-8C124.9,245,127.8,247.5,129.1,251.6z"/>
	<path class="st0" d="M135.1,257.7c-3.2-0.1-4.7-1.4-5.9-5.1C131.1,254.3,133.1,256,135.1,257.7z"/>
	<path class="st0" d="M102.2,225.5c-2.8-0.4-4.7-1.6-4.2-4.8C99.4,222.3,100.8,223.9,102.2,225.5z"/>
	<path class="st0" d="M289,333.7c-1.3,0-2.6-0.1-3.9-0.1c2.9-1.9,5.9-0.6,9.6-0.9C292.5,334.2,290.7,333.3,289,333.7z"/>
	<path class="st0" d="M311.1,333.5c-1.3,0-2.6,0.1-3.8,0.1c-1.3-0.3-2.9,0.5-4.5-1C305.8,333,308.5,331.7,311.1,333.5z"/>
</g>
</svg>
