<?xml version="1.0" encoding="utf-8"?>
<!-- Generator: Adobe Illustrator 22.0.1, SVG Export Plug-In . SVG Version: 6.00 Build 0)  -->
<svg version="1.1" id="Layer_1" xmlns="http://www.w3.org/2000/svg" xmlns:xlink="http://www.w3.org/1999/xlink" x="0px" y="0px"
	 viewBox="0 0 120 80" style="enable-background:new 0 0 120 80;" xml:space="preserve">
<style type="text/css">
	.st0{fill:#333333;}
	.st1{fill:none;}
	.st2{fill:#FFFFFF;}
</style>
<rect class="st0" width="120" height="80"/>
<rect x="5.5" y="13.9" class="st1" width="113" height="62.5"/>
<path class="st2" d="M27.3,26.2c0-2.1-0.9-4-3.3-4c-2.1,0-3.2,1.7-3.2,3.8c0,9.9,20.8,4.8,20.8,22.6c0,11.6-5.4,16.2-18.3,16.2
	c-10.7,0-16.5-3.6-16.5-14.6v-1.3h13.5v2.3c0,2.4,1,4.4,3.5,4.4c2.6,0,3.4-2.2,3.4-4.4c0-3.2-1.2-3.9-3-4.9c-1.9-1-4.4-2-6.9-3.3
	c-7.5-3.8-10-6.5-10-13.9c0-6.9,2.1-10.7,5.3-13c2.4-1.7,5.9-3.1,11.4-3.1c14.1,0,16.5,7,16.5,15.3H27.3V26.2z"/>
<path class="st2" d="M45.6,13.9h30v11.3h-16v7.7h15v10.9h-15v8.6h16.7v11.3H45.6V13.9z"/>
<path class="st2" d="M97.1,13C115,13,115,23.4,115,38.8c0,15.9,0,25.9-17.9,25.9c-17.9,0-17.9-10-17.9-25.9
	C79.2,23.4,79.2,13,97.1,13z M97.1,22.2c-3,0-3.6,2.1-3.6,16.7c0,14.6,0.6,16.7,3.6,16.7s3.6-2.1,3.6-16.7
	C100.7,24.3,100.1,22.2,97.1,22.2z"/>
</svg>
